<svg width="30.732" height="19.453" xmlns="http://www.w3.org/2000/svg">

 <g>
  <title>background</title>
  <rect fill="none" id="canvas_background" height="402" width="582" y="-1" x="-1"/>
 </g>
 <g>
  <title>Layer 1</title>
  <path fill="#ffffff" id="svg_1" d="m26.133,7.891c-0.091,-0.605 -0.244,-1.206 -0.458,-1.798c-1.32,-3.644 -4.811,-6.093 -8.687,-6.093c-1.07,0 -2.128,0.187 -3.143,0.554c-2.491,0.902 -4.474,2.846 -5.444,5.289c-0.291,-0.03 -0.581,-0.046 -0.87,-0.046c-4.153,0 -7.531,3.048 -7.531,6.794c0,3.525 2.827,6.365 6.722,6.75l1.099,0.091l0,-0.104l15.994,0l0,0.125l1.087,-0.096c3.378,-0.296 5.831,-2.756 5.831,-5.85c0,-2.603 -1.893,-4.864 -4.6,-5.616zm-1.092,9.437l-18.22,0l-0.093,0.002c-2.751,-0.351 -4.728,-2.318 -4.728,-4.739c0,-2.643 2.48,-4.794 5.531,-4.794c0.442,0 0.892,0.048 1.337,0.142l0.909,0.192l0.259,-0.893c0.641,-2.222 2.319,-4.017 4.489,-4.803c0.796,-0.289 1.625,-0.435 2.463,-0.435c3.037,0 5.773,1.919 6.806,4.773c0.239,0.66 0.382,1.333 0.424,2.001l0.051,0.794l0.785,0.129c2.133,0.353 3.68,1.955 3.68,3.811c-0.001,1.97 -1.503,3.507 -3.693,3.82z"/>
 </g>
</svg>